<?xml version="1.0" encoding="UTF-8" standalone="no"?><!-- Generator: Gravit.io --><svg xmlns="http://www.w3.org/2000/svg" xmlns:xlink="http://www.w3.org/1999/xlink" style="isolation:isolate" viewBox="0 0 280 380" width="280pt" height="380pt"><defs><clipPath id="_clipPath_PDQolZQ8HrMthlkqESZGIVb4U1wspvMA"><rect width="280" height="380"/></clipPath></defs><g clip-path="url(#_clipPath_PDQolZQ8HrMthlkqESZGIVb4U1wspvMA)"><g filter="url(#sZHY0WT7HKSztpAZcYF60Abc1nt4tmBz)"><linearGradient id="_lgradient_0" x1="0.1305068793634051" y1="0.12050951959100395" x2="0.8006864287238167" y2="0.5949229274411445" gradientTransform="matrix(197.744,18.573,-30.232,321.88,22.267,-2.028)" gradientUnits="userSpaceOnUse"><stop offset="0%" stop-opacity="1" style="stop-color:rgb(245,0,87)"/><stop offset="100%" stop-opacity="1" style="stop-color:rgb(63,61,86)"/></linearGradient><path d=" M 162.003 99.463 Q 155.722 46.488 218.314 34.617 Q 80.604 -32.333 28.096 68.76 C -24.413 169.853 45.51 302.223 41.029 303.033 C 36.549 303.843 25.272 314.242 38.454 322.916 C 52.502 332.159 66.438 302.89 66.14 293.166 C 65.841 283.442 53.821 232.14 50.246 218.756 C 46.67 205.372 46.212 169.085 57.066 166.722 L 63.007 168.25 Q 93.419 98.386 162.003 99.463 Z " fill="url(#_lgradient_0)"/><linearGradient id="_lgradient_1" x1="0.21116487139173934" y1="0.10154294177260093" x2="0.9186570443029838" y2="0.8955615449718896" gradientTransform="matrix(210.603,0,0,272.034,57.849,97.226)" gradientUnits="userSpaceOnUse"><stop offset="1.7391304347826086%" stop-opacity="1" style="stop-color:rgb(109,106,142)"/><stop offset="98.69565217391305%" stop-opacity="1" style="stop-color:rgb(17,16,23)"/></linearGradient><path d=" M 243.737 249.372 L 268.016 369.26 Q 173.153 290.272 153.019 286.4 Q 146.437 217.479 127.851 221.738 Q 109.266 225.997 123.205 285.238 Q 76.284 311.255 80.543 299.639 C 84.802 288.023 97.65 279.817 89.519 266.266 C 81.388 252.714 47.702 221.351 60.866 173.339 C 74.031 125.326 126.69 83.122 180.123 101.707 C 233.556 120.293 252.141 146.622 254.851 168.692 Q 257.562 190.762 268.452 248.586 Q 251.418 190.943 226.973 191.15 Q 196.708 191.406 180.51 213.22 Q 198.4 235.625 237.894 220.524 L 243.737 249.372 Z " fill="url(#_lgradient_1)"/></g><defs><filter id="sZHY0WT7HKSztpAZcYF60Abc1nt4tmBz" x="-200%" y="-200%" width="400%" height="400%" filterUnits="objectBoundingBox" color-interpolation-filters="sRGB"><feGaussianBlur xmlns="http://www.w3.org/2000/svg" in="SourceGraphic" stdDeviation="4.293609062839028"/><feOffset xmlns="http://www.w3.org/2000/svg" dx="0" dy="5" result="pf_100_offsetBlur"/><feFlood xmlns="http://www.w3.org/2000/svg" flood-color="#353535" flood-opacity="0.3"/><feComposite xmlns="http://www.w3.org/2000/svg" in2="pf_100_offsetBlur" operator="in" result="pf_100_dropShadow"/><feBlend xmlns="http://www.w3.org/2000/svg" in="SourceGraphic" in2="pf_100_dropShadow" mode="normal"/></filter></defs></g></svg>